<?xml version="1.0" encoding="UTF-8" standalone="no"?>
<!-- Created with Inkscape (http://www.inkscape.org/) -->

<svg
   xmlns:dc="http://purl.org/dc/elements/1.1/"
   xmlns:cc="http://creativecommons.org/ns#"
   xmlns:rdf="http://www.w3.org/1999/02/22-rdf-syntax-ns#"
   xmlns:svg="http://www.w3.org/2000/svg"
   xmlns="http://www.w3.org/2000/svg"
   xmlns:sodipodi="http://sodipodi.sourceforge.net/DTD/sodipodi-0.dtd"
   xmlns:inkscape="http://www.inkscape.org/namespaces/inkscape"
   width="1045.8921mm"
   height="1056.1147mm"
   viewBox="0 0 1045.8921 1056.1148"
   version="1.1"
   id="svg8"
   inkscape:version="0.92.5 (2060ec1f9f, 2020-04-08)"
   sodipodi:docname="parasail_logo.svg">
  <defs
     id="defs2" />
  <sodipodi:namedview
     id="base"
     pagecolor="#ffffff"
     bordercolor="#666666"
     borderopacity="1.0"
     inkscape:pageopacity="0.0"
     inkscape:pageshadow="2"
     inkscape:zoom="0.175"
     inkscape:cx="2819.924"
     inkscape:cy="2387.1346"
     inkscape:document-units="mm"
     inkscape:current-layer="layer1"
     showgrid="false"
     fit-margin-top="50"
     fit-margin-left="50"
     fit-margin-right="50"
     fit-margin-bottom="50"
     inkscape:window-width="1848"
     inkscape:window-height="1016"
     inkscape:window-x="72"
     inkscape:window-y="27"
     inkscape:window-maximized="1" />
  <metadata
     id="metadata5">
    <rdf:RDF>
      <cc:Work
         rdf:about="">
        <dc:format>image/svg+xml</dc:format>
        <dc:type
           rdf:resource="http://purl.org/dc/dcmitype/StillImage" />
        <dc:title></dc:title>
      </cc:Work>
    </rdf:RDF>
  </metadata>
  <g
     inkscape:label="Layer 1"
     inkscape:groupmode="layer"
     id="layer1"
     transform="translate(789.95016,272.66147)">
    <path
       style="fill:#000000;stroke-width:0.26458332"
       d="m 15.194643,732.371 c -63.76019,-4.465 -113.5389,-12.25259 -174.095833,-27.23629 -20.3798,-5.04258 -40.88355,-11.07368 -66.27813,-19.49539 -47.39113,-15.71655 -86.3674,-31.96821 -131.89479,-54.99529 -18.52929,-9.37183 -18.63891,-9.44144 -20.43916,-12.97966 -0.75742,-1.48866 -0.86008,-1.94268 -0.86074,-3.80691 -0.003,-4.65682 2.01327,-8.29019 5.51513,-9.94532 0.96904,-0.45799 2.95249,-1.16758 4.4077,-1.57686 20.10674,-5.65512 241.263,-70.10188 248.25588,-72.34383 19.68474,-6.31103 37.049423,-13.63064 54.395663,-22.92908 21.64445,-11.60246 47.1841,-29.56692 64.8547001,-45.61853 3.63802,-3.3047 47.7506699,-45.52011 98.0281199,-93.81199 59.700337,-57.34267 91.945747,-88.13586 92.947667,-88.76157 1.99478,-1.24582 4.58814,-1.66362 7.5083,-1.20965 1.69785,0.26395 2.26232,0.50096 3.91646,1.64449 1.96184,1.3562 3.428,3.15069 4.05109,4.95824 0.65418,1.89775 0.59018,5.12157 -0.45021,22.67744 -4.48342,75.65374 -14.52888,135.97832 -34.5866,207.69791 -12.34562,44.14367 -29.00376,89.85787 -48.27728,132.4851 -9.11153,20.15199 -22.07148,46.54788 -25.790567,52.52845 -3.69658,5.94436 -7.86313,11.02513 -12.5113,15.25656 -10.54669,9.60109 -21.53296,14.94081 -35.88777,17.44266 -8.40338,1.4646 -12.14077,1.46682 -32.80833,0.0196 z m 31.75,-8.03772 c 12.54302,-2.26306 22.17737,-6.97164 31.40731,-15.34962 4.13022,-3.74899 7.84373,-8.28513 11.1619,-13.63453 1.60178,-2.58236 5.07047,-9.237 9.9297,-19.05 26.294107,-53.09997 47.847907,-108.92205 63.134817,-163.5125 19.8368,-70.83838 30.11215,-132.46026 34.37512,-206.14939 1.14303,-19.75831 1.1393,-19.49317 0.28652,-20.34598 -0.78809,-0.78809 -2.31532,-0.87185 -3.35791,-0.18423 -0.38502,0.25395 -41.08974,39.27592 -90.45493,86.71544 -49.365157,47.43955 -93.400927,89.57305 -97.8572469,93.62996 -19.2193601,17.49689 -44.3403801,35.27099 -67.3279401,47.63719 -17.94981,9.65616 -36.09099,17.28301 -56.926513,23.93294 -5.52979,1.7649 -63.21557,18.63138 -128.19062,37.48106 -64.97505,18.84966 -119.12266,34.5807 -120.328,34.95783 -1.36506,0.4271 -2.33793,0.89467 -2.57968,1.23982 -0.59116,0.84402 -0.49001,2.40744 0.20717,3.20217 0.91117,1.0387 28.83751,15.01844 47.16197,23.60895 39.55719,18.54449 82.09881,34.55652 130.57187,49.14533 15.43569,4.64566 20.2651,5.96958 35.58646,9.75561 59.608463,14.72977 107.855783,22.30244 170.656253,26.78546 13.78863,0.98428 17.00675,1.1371 22.09271,1.04907 5.20499,-0.0901 6.51838,-0.20505 10.45104,-0.91458 z m -57.02065,-7.95526 c -0.15734,-0.29403 -0.21383,-0.65159 -0.12546,-0.79454 0.0883,-0.14295 4.8265801,-4.62748 10.5294101,-9.96561 13.8415999,-12.95641 37.0889999,-36.59661 35.9863199,-36.59433 -0.11964,2.3e-4 -3.37269,0.64775 -7.229,1.4389 -17.9143,3.67525 -54.54261,8.62878 -71.69139,9.6954 -4.72355,0.29379 -8.71215,0.63076 -8.86354,0.74882 -6.57201,5.12482 -15.04561,11.2721 -24.93862,18.092 -6.85781,4.72755 -12.627,8.65206 -12.82041,8.72111 -0.53494,0.19101 -1.2777,-0.29125 -1.2777,-0.82957 0,-0.26337 0.20836,-0.65916 0.46302,-0.87956 0.25466,-0.22039 5.88036,-4.1294 12.50156,-8.68672 11.03077,-7.59237 22.64585,-16.06192 22.38497,-16.3228 -0.0589,-0.0589 -2.23232,0.0156 -4.82986,0.16523 -8.24778,0.47556 -30.55467,0.62119 -45.250453,0.29543 -12.79803,-0.28371 -15.32625,-0.42026 -29.98382,-1.61964 -8.80401,-0.72039 -17.25745,-1.48109 -18.78542,-1.69043 -4.8133,-0.65944 -3.92454,-0.92842 -13.9854,4.23283 -4.96411,2.54662 -9.31704,4.63021 -9.67314,4.63021 -0.77994,0 -1.19152,-0.93459 -0.64418,-1.46264 0.19685,-0.18992 3.86691,-2.13479 8.1557,-4.32192 4.28877,-2.18712 7.62252,-4.03116 7.40834,-4.09784 -0.21421,-0.0667 -3.60413,-0.49683 -7.53319,-0.95583 -10.26827,-1.19957 -33.27993,-5.37091 -50.27084,-9.11259 -13.20609,-2.9082 -34.70521,-8.41307 -43.18886,-11.05853 -3.40373,-1.0614 -3.54142,-1.08222 -4.93855,-0.74705 -1.826,0.43804 -2.39043,0.24924 -2.1938,-0.73385 l 0.14642,-0.7321 -9.30843,-2.9913 c -16.17134,-5.19676 -34.06688,-11.93755 -49.23383,-18.54518 -13.11193,-5.71232 -39.21455,-18.1483 -39.62243,-18.87717 -0.11854,-0.2118 -0.0509,-0.58304 0.15843,-0.86926 0.33962,-0.46445 1.55051,-0.55901 17.21077,-1.34408 44.34946,-2.22335 85.72537,-7.63257 133.21924,-17.41626 42.43054,-8.74064 88.44563,-22.09336 128.322923,-37.23695 13.69041,-5.19898 39.83227,-15.94829 49.07219,-20.17805 2.80114,-1.28228 4.79221,-2.68132 20.64551,-14.50684 26.0992701,-19.46833 50.55577,-40.2568 76.41635,-64.95534 24.71322,-23.60271 45.617897,-45.96543 69.629707,-74.48616 19.5104,-23.17406 40.47138,-51.6985 59.426,-80.86897 5.05883,-7.78536 9.3305,-14.30404 9.49261,-14.48594 0.37248,-0.41796 0.58581,-0.4156 1.17184,0.013 0.44839,0.32787 0.4205,1.03486 -0.60788,15.41198 -1.47077,20.56222 -3.55404,37.98866 -6.87798,57.53396 -1.85229,10.89176 -5.37339,28.7496 -6.2694,31.79622 -0.0912,0.3102 0.0517,0.46895 0.47651,0.52917 1.0818,0.15343 0.95708,1.2619 -0.2626,2.33362 -0.99234,0.87196 -1.09011,1.09363 -1.63409,3.70557 -1.17443,5.63896 -8.31099,31.23364 -12.41573,44.52813 -4.78658,15.50273 -12.163,36.04509 -17.21014,47.92806 -1.60335,3.77491 -2.86864,6.91004 -2.81173,6.96692 0.0569,0.0569 3.26149,-1.92227 7.12131,-4.39816 3.85982,-2.4759 7.25459,-4.62833 7.54394,-4.78317 0.89061,-0.47664 1.81504,0.23045 1.47156,1.12559 -0.074,0.19291 -4.11308,2.90158 -8.9757,6.01927 l -8.84111,5.66857 -1.84613,4.36562 c -3.59407,8.49898 -14.35968,30.35308 -21.04943,42.73021 -6.83942,12.65402 -19.59327,34.6074 -23.5264,40.49636 -1.247747,1.86822 -2.224277,3.44114 -2.170057,3.49536 0.25648,0.25651 13.530887,-5.50723 25.773877,-11.19095 14.22434,-6.60358 14.46009,-6.68724 14.46009,-5.13096 0,0.56682 -1.29842,1.22682 -14.02292,7.12811 -7.7126,3.57693 -17.29713,7.84728 -21.29896,9.48968 l -7.276037,2.98617 -4.36562,6.49922 c -2.4011,3.57458 -8.29469,11.93157 -13.09688,18.57111 -10.46549,14.46969 -21.7792,28.54859 -35.7682,44.51027 -0.31911,0.36409 0.32017,0.28935 3.80167,-0.44448 8.09884,-1.70706 32.11396,-8.05931 45.42615,-12.01568 7.97343,-2.36969 13.668507,-3.93388 13.972137,-3.83751 0.61079,0.19386 0.57814,1.39202 -0.0474,1.73966 -0.21829,0.12131 -6.647657,2.06073 -14.287497,4.30979 -14.32772,4.21791 -38.31982,10.48684 -46.69896,12.20203 l -4.7625,0.97489 -3.56309,4.08998 c -8.38089,9.62025 -44.0745299,44.53424 -45.5287099,44.53424 -0.27442,0 -0.62772,-0.24058 -0.7851001,-0.53464 z m -47.22518,-37.29765 c 2.61937,-0.16406 5.00943,-0.39838 5.31124,-0.5207 0.30181,-0.12231 3.04025,-2.13164 6.08542,-4.46516 8.37607,-6.4186 27.15736,-22.63965 40.1970901,-34.71746 12.43004,-11.51308 15.54596,-14.53938 14.96996,-14.53938 -0.19891,0 -3.58899,0.8268 -7.53351,1.83732 -12.6674001,3.24519 -35.7049101,7.99468 -52.6726101,10.85911 -13.99688,2.36294 -16.79112,2.74801 -31.6253,4.35856 -8.94953,0.97165 -16.56953,1.85605 -16.93333,1.96538 -0.36381,0.10932 -4.931893,2.85445 -10.151273,6.10031 -9.0432,5.6238 -33.132,19.44454 -41.56639,23.84835 -2.24348,1.17139 -3.79195,2.12521 -3.57187,2.20022 1.81422,0.61825 33.29477,3.03599 43.11869,3.31155 11.0998,0.31134 48.193883,0.14891 54.371883,-0.2381 z m 16.80104,-1.07349 c 7.98565,-0.43841 32.4474901,-3.41186 47.8895801,-5.8212 10.7539099,-1.67789 28.2414099,-4.89384 30.9996199,-5.70082 0.72241,-0.21135 10.31433,-11.34645 20.13323,-23.37231 6.766,-8.28675 11.45084,-14.37021 17.72708,-23.01928 7.68112,-10.58508 15.91754,-22.48509 15.70786,-22.69477 -0.0443,-0.0443 -2.394,0.86331 -5.22155,2.01689 -2.82752,1.15359 -11.56801,4.44048 -19.4233,7.30419 -15.54938,5.6687 -38.66288,13.12805 -48.36941,15.61008 l -5.51209,1.40949 -2.5577,2.7119 c -7.9260899,8.40388 -43.9158,40.39094 -54.41603,48.36411 -5.23687,3.97653 -5.06526,3.79598 -3.43958,3.619 0.7276,-0.0792 3.64463,-0.27149 6.48229,-0.42728 z m -112.869933,-5.37149 c 13.39033,-6.89488 50.31155,-28.48578 48.70498,-28.48184 -0.28911,0 -4.99052,0.35965 -10.44755,0.79764 -6.24737,0.50144 -15.55612,1.00078 -25.13542,1.34834 -13.99458,0.50776 -16.47491,0.52766 -30.95625,0.24815 -13.19392,-0.25466 -18.33432,-0.47516 -31.75,-1.36194 -8.80401,-0.58195 -19.31823,-1.39761 -23.36495,-1.81255 l -7.35769,-0.75449 -2.22372,0.8967 c -1.22306,0.49316 -7.73478,2.8516 -14.47046,5.24097 -6.73568,2.38935 -12.6039,4.48715 -13.04047,4.66175 l -0.79375,0.31747 1.05834,0.37836 c 0.58208,0.20809 7.47678,2.10206 15.32154,4.20883 18.0594,4.84997 36.36843,8.9064 56.1371,12.43737 13.00649,2.32318 28.05842,4.49903 31.70372,4.58304 1.15543,0.0266 1.88084,-0.27033 6.61458,-2.7078 z m -99.67645,-25.06353 c 7.83265,-2.7759 14.33364,-5.13652 14.44665,-5.24579 0.113,-0.1093 -1.97059,-0.40746 -4.63021,-0.66257 -8.81211,-0.84529 -34.92421,-5.13567 -50.87318,-8.35879 -16.63764,-3.3623 -39.31846,-8.93644 -52.84396,-12.98716 -4.37007,-1.30878 -7.99021,-2.33494 -8.04476,-2.28039 -0.24982,0.2498 14.51104,7.13187 26.5385,12.37324 10.57153,4.60693 15.98639,6.77889 26.59062,10.66586 11.71131,4.29278 32.90091,11.44209 34.13197,11.51604 0.24373,0.0145 6.8517,-2.24456 14.68437,-5.02044 z m 112.93075,-3.30533 c 8.98028,-0.28591 16.67055,-0.71073 26.25638,-1.45042 l 13.5564,-1.04609 4.170683,-2.59963 c 8.5075,-5.30281 31.38954,-21.35127 44.03646,-30.88527 10.76399,-8.1145 34.26328,-27.0139 33.96263,-27.31455 -0.0494,-0.0494 -5.60821,1.71053 -12.35287,3.91102 -28.00974,9.13834 -60.3038,17.31095 -92.431763,23.3915 -13.83871,2.61913 -18.38386,3.35801 -31.88229,5.18287 l -15.74271,2.12828 -3.83646,1.83181 c -7.49368,3.57807 -34.68235,15.33838 -44.69759,19.33369 -7.50316,2.9932 -10.03517,4.10953 -9.65729,4.25781 0.88418,0.34695 11.61343,1.25076 26.44134,2.22737 14.4685,0.95295 39.58725,1.78837 46.43438,1.54434 1.67349,-0.0596 8.7577,-0.29035 15.7427,-0.51273 z m 59.934803,-4.61788 c 11.8255,-1.33461 16.54579,-2.00319 29.08165,-4.11909 19.88066,-3.3556 44.7530801,-8.67053 62.51892,-13.35953 1.39068,-0.36705 12.34564,-11.51183 25.20601,-25.64278 12.35088,-13.57111 25.56459,-29.67032 38.22041,-46.56666 4.85047,-6.47568 8.95083,-11.94639 9.11196,-12.15716 0.1611,-0.21074 -0.65958,0.12973 -1.82375,0.75661 -1.16417,0.62687 -8.96276,4.40994 -17.33021,8.40679 -20.97484,10.01897 -40.4197,18.29898 -61.3836499,26.13834 l -15.8655801,5.93286 -12.84507,10.62125 c -16.37509,13.5401 -34.18903,26.9994 -51.59007,38.97878 -6.985,4.80867 -14.05514,9.61171 -15.71141,10.6734 -2.20689,1.41468 -2.83705,1.93038 -2.35873,1.93038 0.35896,0 7.00524,-0.71695 14.76952,-1.59319 z m -141.245093,-4.118 c 12.89473,-5.17457 44.72292,-18.97227 44.07085,-19.10498 -0.20979,-0.0427 -6.14468,0.52858 -13.18868,1.26949 -16.94942,1.78279 -39.47269,2.99019 -64.26875,3.44527 -15.48262,0.28414 -18.08832,0.26504 -33.20521,-0.24336 -20.99579,-0.70609 -43.62524,-2.31767 -57.79629,-4.11602 -5.15766,-0.6545 -9.41012,-1.15744 -9.44991,-1.11765 -0.0398,0.0398 4.2396,1.34189 9.50983,2.89351 24.8111,7.30475 53.78905,13.71621 82.21091,18.18942 13.67134,2.15164 24.8016,3.58547 28.49121,3.67024 1.20123,0.0276 2.89692,-0.58044 13.62604,-4.88592 z M 20.486313,619.83458 c 1.74625,-0.43661 9.6113,-2.81395 17.47789,-5.28298 15.49133,-4.86215 37.51043,-12.70011 49.59398,-17.65356 l 6.74687,-2.7658 3.47935,-5.21864 c 4.911937,-7.36737 16.298707,-26.87703 24.047397,-41.20197 7.83564,-14.48565 21.96698,-43.46324 21.44837,-43.98182 -0.0646,-0.0646 -1.58544,0.82558 -3.37963,1.97818 -8.36165,5.37163 -33.25405,19.88643 -42.023607,24.50404 -5.89129,3.10206 -9.60848,5.21439 -9.97154,5.66643 -0.31834,0.39637 -5.02875,6.67379 -10.46755,13.94984 -18.16515,24.30137 -37.5821,47.17639 -55.21706,65.05096 -3.28229,3.32689 -5.72968,5.98143 -5.43864,5.89901 0.29104,-0.0824 1.95792,-0.5071 3.70417,-0.94369 z m -269.875003,-0.82912 c 7.13052,-0.14425 20.0488,-0.62103 28.70729,-1.05953 13.94812,-0.70635 17.65792,-0.99438 32.54375,-2.5265 l 16.80104,-1.72926 12.7,-6.28743 c 27.67002,-13.69864 60.893383,-32.49147 84.005213,-47.51763 11.62814,-7.56005 27.11095,-18.09136 26.90304,-18.29927 -0.0386,-0.0386 -5.8116,2.36458 -12.82893,5.34037 -38.16342,16.18367 -81.196073,30.45868 -124.405363,41.26836 -30.98382,7.75121 -66.46611,14.5088 -98.67717,18.79304 -19.89894,2.64662 -45.68203,5.11453 -60.73429,5.81332 -4.9477,0.22971 -9.41255,0.49101 -9.92187,0.5807 -0.62309,0.10975 2.32373,0.57473 9.00769,1.4214 14.22836,1.80231 38.56495,3.52097 59.25481,4.1846 8.36745,0.26836 17.11854,0.44119 19.44687,0.38401 2.32834,-0.0572 10.0674,-0.22196 17.19792,-0.36618 z m 98.02812,-8.05064 c 27.05799,-3.68199 61.913063,-11.09403 92.604173,-19.69254 20.82689,-5.83493 44.86635,-13.59469 46.30208,-14.94599 0.50932,-0.47937 5.8671401,-5.32146 11.9062501,-10.76024 13.0601799,-11.76184 30.5609899,-28.93591 46.4936199,-45.62567 12.69116,-13.29425 26.36427,-29.13396 39.16933,-45.37604 4.30226,-5.45703 8.01101,-10.15135 8.24167,-10.43181 0.23064,-0.28048 -3.45019,2.08751 -8.17962,5.26219 -11.54176,7.74756 -35.04292,22.08057 -52.48301,32.00858 -17.26769,9.82988 -38.4264699,20.74376 -57.05449,29.42915 -7.05776,3.29073 -13.12995,6.18416 -13.49375,6.42983 -0.3638,0.24569 -5.27399,3.68776 -10.91155,7.64905 -16.49351,11.58936 -36.5942,24.49719 -52.985323,34.02502 -16.93537,9.84419 -35.37082,19.8919 -51.06459,27.83126 -6.40291,3.23918 -11.5226,5.89348 -11.37708,5.89843 0.14552,0.005 5.92005,-0.7606 12.83229,-1.70122 z M 5.8736931,570.04955 c 17.6338399,-6.60619 38.6652999,-15.62806 58.1365699,-24.93891 8.36745,-4.00116 16.88042,-8.16173 18.91771,-9.24573 l 3.70417,-1.97088 7.47453,-10.95058 c 9.071207,-13.28978 20.942007,-32.62526 31.169867,-50.77036 5.26852,-9.3468 8.80841,-16.05987 13.81234,-26.19375 5.94564,-12.041 11.35578,-23.72045 11.1043,-23.97197 -0.0482,-0.0482 -4.30988,3.21252 -9.47042,7.24599 -8.47225,6.62191 -32.35846,24.41519 -39.00614,29.05641 l -2.642607,1.84499 -9.94664,12.59837 c -5.47063,6.9291 -14.7452,18.23551 -20.61017,25.12531 -8.70262,10.2234 -12.73804,14.69202 -21.94507,24.3009 -15.50188,16.17847 -32.63392,33.02455 -43.9451999,43.21169 -5.16599,4.65257 -9.74989,8.8052 -10.18646,9.22806 l -0.79375,0.76885 0.79375,-0.30162 c 0.43657,-0.16589 6.4815,-2.43245 13.43322,-5.03677 z M 101.84568,525.82064 c 7.84389,-4.16026 41.29286,-24.14222 43.07073,-25.72988 0.0418,-0.0373 1.77755,-4.1016 3.8573,-9.03179 5.82589,-13.8107 12.60195,-32.59717 17.61067,-48.82513 3.54605,-11.48902 10.69448,-36.89418 12.03481,-42.77106 0.35436,-1.55373 0.3501,-1.64557 -0.0614,-1.32291 -0.24321,0.19071 -4.88411,4.19274 -10.31309,8.89338 -5.42899,4.70062 -10.85646,9.32125 -12.06106,10.26803 l -2.19019,1.72144 -2.8769,6.66527 c -1.58231,3.66594 -5.98757,12.97562 -9.78947,20.68822 -5.42425,11.00373 -8.53718,16.89968 -14.45835,27.38438 -9.71632,17.20479 -21.3792,36.31266 -29.311137,48.02187 -3.45022,5.09323 -6.36866,9.42457 -6.48544,9.62523 -0.11679,0.20063 1.02457,-0.29552 2.53632,-1.10258 1.51175,-0.80705 5.30849,-2.82506 8.437187,-4.48447 z m -117.078117,-1.47481 c 1.4552,-0.68025 9.3728601,-4.67353 17.5947901,-8.874 18.0219299,-9.20713 37.1582099,-20.01268 58.0760399,-32.79335 13.36122,-8.16364 35.91671,-22.90353 37.46812,-24.48523 1.70193,-1.73514 20.047447,-28.18675 28.197407,-40.65662 19.18531,-29.35451 33.80134,-55.1438 48.35956,-85.32812 5.77139,-11.96615 15.18219,-32.95359 14.89578,-33.21974 -0.0378,-0.0352 -2.62213,3.8716 -5.74289,8.68167 -8.20086,12.6402 -24.33343,35.38799 -35.60336,50.20265 -11.57867,15.22055 -25.91512,32.41008 -42.91999,51.46146 -35.735157,40.03579 -81.240947,82.05528 -120.986917,111.71785 -6.33016,4.72421 -11.68797,8.76096 -11.90625,8.97054 -0.21828,0.20957 1.92484,-0.70377 4.7625,-2.02965 2.83765,-1.32588 6.35,-2.96725 7.80521,-3.64746 z M 117.72068,444.12442 c 11.9122,-8.79718 33.55686,-25.43616 34.30534,-26.37168 0.68998,-0.86241 6.31481,-14.31941 11.5919,-27.73278 8.35697,-21.24188 14.2317,-38.65049 19.5538,-57.94374 3.5247,-12.77758 8.26664,-31.54239 8.03055,-31.7785 -0.0423,-0.0422 -1.79128,3.93549 -3.88676,8.83939 -5.81805,13.61564 -16.94783,36.45611 -26.04905,53.45768 -5.93941,11.09517 -9.84702,17.96862 -16.37537,28.8041 -10.17157,16.88225 -23.83814,37.8441 -34.20507,52.46378 -4.07602,5.74807 -7.51592,10.62329 -7.64424,10.83382 -0.30305,0.49715 -0.57719,0.69458 14.6789,-10.57207 z m 50.2952,-39.73964 11.5012,-9.97689 2.4362,-11.32207 c 3.56013,-16.54559 6.49052,-34.37586 8.64428,-52.5971 1.42928,-12.09204 3.01266,-29.37055 2.71841,-29.6648 -0.0424,-0.0423 -0.89474,3.40022 -1.89415,7.65014 -0.99944,4.24995 -3.7533,14.77193 -6.11971,23.38218 -3.76084,13.68407 -4.92627,17.48155 -9.25684,30.1625 -4.88736,14.31147 -13.55696,37.03458 -18.10295,47.4481 -2.58514,5.92177 -2.4905,5.66153 -1.90579,5.23973 0.26299,-0.18973 5.65369,-4.83452 11.97935,-10.32179 z M -427.85014,590.4747 c -0.80037,-0.25734 -1.72091,-0.61114 -2.04565,-0.78624 -0.32473,-0.1751 -7.19548,-4.64746 -15.26834,-9.93859 -40.02492,-26.23326 -76.87313,-54.33944 -112.06726,-85.47992 -36.21246,-32.04152 -65.12567,-61.69734 -98.54395,-101.07499 -9.57238,-11.27937 -13.57586,-16.26113 -22.21957,-27.64895 -16.51053,-21.75214 -29.96134,-40.47347 -41.35273,-57.55627 -11.39844,-17.09335 -13.69404,-21.0376 -16.45321,-28.26943 -1.61523,-4.23352 -1.93782,-5.3974 -2.7588,-9.95347 -1.8537,-10.28718 -1.85398,-18.26546 -10e-4,-28.70729 0.82569,-4.65286 1.14566,-5.83467 2.65051,-9.78958 3.14728,-8.27149 5.4598,-12.28286 16.56989,-28.7427 21.19958,-31.40762 43.09248,-60.73785 63.58079,-85.18006 21.85885,-26.077177 47.9696,-53.812495 72.73645,-77.261933 34.92385,-33.0661698 70.31444,-62.125492 108.62444,-89.191872 14.98452,-10.586698 42.07108,-28.63649 45.49015,-30.31346 1.7689,-0.8676 2.25296,-0.9842 4.4577,-1.07379 2.36855,-0.0962 2.54789,-0.0632 4.23334,0.77957 1.09974,0.5499 2.40824,1.52758 3.48789,2.60611 1.55602,1.55434 1.80073,1.94978 2.45991,3.97501 0.66548,2.04451 0.70829,2.4053 0.47102,3.968747 -0.14363,0.945885 -12.89496,52.857134 -28.33633,115.358331 -34.01301,137.672607 -32.10944,129.872457 -34.38321,140.890627 -4.14462,20.08381 -6.21506,37.6691 -6.9046,58.64405 -0.83314,25.34319 1.56345,52.13368 7.01435,78.41012 2.37474,11.44762 -0.40079,0.0858 34.25414,140.22014 21.79291,88.12405 28.34437,114.98498 28.39432,116.41666 0.0583,1.67172 -0.0332,2.06304 -0.89937,3.84548 -1.43343,2.94971 -2.96992,4.53353 -5.36559,5.53085 -1.68082,0.69972 -2.2886,0.81709 -4.16888,0.80492 -1.34266,-0.009 -2.76879,-0.19669 -3.65641,-0.48207 z m 5.27246,-8.40293 c 0.32027,-0.40714 0.54837,-1.08683 0.54837,-1.63399 0,-0.51527 -13.53058,-55.65492 -30.06799,-122.53253 -22.25577,-90.00292 -30.60986,-124.20796 -32.15354,-131.64987 -4.31369,-20.7954 -6.44403,-38.54902 -7.23583,-60.30121 -0.33475,-9.19615 -0.33549,-11.91202 -0.006,-21.03438 0.80076,-22.14914 2.85928,-39.322 7.24985,-60.48107 1.53194,-7.38278 10.07417,-42.40128 32.14973,-131.79661 16.53477,-66.958346 30.06334,-122.178991 30.06334,-122.712545 0,-1.89445 -1.8551,-2.82829 -3.71147,-1.86833 -2.78614,1.44077 -32.40903,21.275748 -43.9991,29.461044 -76.74217,54.197892 -147.14193,121.331228 -201.80894,192.445411 -13.07404,17.0075 -28.72909,38.77294 -41.25504,57.35749 -10.3172,15.30744 -12.60116,19.22613 -15.31338,26.2737 -4.9003,12.73318 -4.91582,30.71366 -0.0375,43.43736 2.38837,6.22938 5.02864,10.7278 15.6108,26.59727 10.91335,16.36614 24.23496,34.8892 40.70835,56.60305 12.83047,16.91203 25.83435,32.43929 45.43988,54.25736 30.08306,33.47805 63.97696,65.7887 101.31122,96.57882 24.38321,20.1092 54.96767,42.613 82.28542,60.54489 17.91129,11.75732 16.91076,11.15129 18.40971,11.15129 1.04968,0 1.35609,-0.1179 1.81171,-0.69715 z m -14.40059,-8.72212 c -23.15011,-15.65704 -49.95537,-36.95637 -70.19782,-55.7788 -0.79668,-0.74083 -0.90085,-0.77308 -1.13763,-0.35245 -0.14335,0.25466 -0.54678,0.46302 -0.89651,0.46302 -0.5094,0 -0.69067,-0.19733 -0.91141,-0.99219 -0.15155,-0.5457 -0.27623,-1.21282 -0.27702,-1.48246 0,-0.28821 -1.99165,-2.40937 -4.83013,-5.14649 -12.53476,-12.08706 -20.96566,-20.7047 -29.88178,-30.54363 -10.41821,-11.49651 -25.48076,-29.43802 -32.75832,-39.01956 l -4.63021,-6.09608 -0.0667,1.09281 c -0.0367,0.60106 0.0824,4.58245 0.26461,8.84759 0.18222,4.26511 0.24583,7.98581 0.14136,8.26823 -0.21619,0.58444 -1.06076,0.68186 -1.48451,0.17126 -0.23927,-0.28829 -1.10373,-16.05841 -1.10373,-20.13503 0,-1.0324 -0.2592,-1.48023 -2.86339,-4.9472 -5.67368,-7.55341 -19.17048,-27.60589 -26.69617,-39.66308 -7.56129,-12.11421 -17.17679,-28.95666 -22.73218,-39.81752 -1.99322,-3.89675 -2.46094,-4.64063 -2.57857,-4.10104 -0.51668,2.37009 -1.73124,13.44594 -2.94062,26.81618 -0.77477,8.56552 -1.5246,15.68958 -1.66628,15.83124 -0.14167,0.14169 -0.53921,0.21775 -0.88342,0.16907 -0.44688,-0.0632 -0.64856,-0.28406 -0.70532,-0.77232 -0.16079,-1.38311 2.64003,-30.77927 3.64892,-38.29735 l 1.04138,-7.76028 -3.70169,-7.39974 c -6.27096,-12.53572 -14.75866,-32.20601 -20.82096,-48.25261 -2.91377,-7.71261 -6.17026,-16.6668 -7.23665,-19.8982 -1.12976,-3.42342 -2.02344,-5.74215 -2.14148,-5.55625 -1.34214,2.11367 -9.757,32.62577 -13.5872,49.26695 -1.70817,7.42156 -3.22192,13.64257 -3.36388,13.82447 -0.38037,0.48739 -1.19484,0.40212 -1.49375,-0.15639 -0.19404,-0.36259 0.5775,-4.1007 3.01718,-14.61823 3.57812,-15.4255 9.65259,-37.74064 12.74405,-46.81654 l 1.7606,-5.16879 -1.75341,-5.28225 c -3.50611,-10.56243 -9.311,-31.78244 -12.75751,-46.63559 -1.79962,-7.75568 -3.20913,-14.26514 -3.13226,-14.46548 0.29218,-0.76142 1.49602,-0.75367 1.78964,0.0116 0.0793,0.20666 1.58331,6.58397 3.34222,14.1718 3.21241,13.85816 9.11842,35.5833 12.21752,44.94196 l 1.35779,4.10022 2.30385,-6.87834 c 1.26712,-3.78312 4.59041,-12.89103 7.3851,-20.23984 5.80854,-15.27389 14.37001,-35.04398 20.42081,-47.1556 l 3.66487,-7.33581 -1.04952,-7.74544 c -1.0013,-7.38954 -3.82084,-37.12853 -3.65512,-38.5522 0.0562,-0.48305 0.25939,-0.70419 0.70482,-0.76721 0.34421,-0.0487 0.74284,0.0285 0.88584,0.17147 0.14301,0.14301 0.89757,7.38614 1.6768,16.09586 1.19958,13.4081 2.18284,22.36316 2.91451,26.54411 0.15404,0.88021 0.25723,0.73054 2.46241,-3.57188 5.64543,-11.01447 15.39833,-28.07134 23.06683,-40.34163 7.67296,-12.27744 21.54292,-32.862363 26.7867,-39.755155 2.44542,-3.21445 2.56754,-3.43715 2.56754,-4.682623 0,-4.209944 0.85888,-20.012527 1.10373,-20.307537 0.42375,-0.510593 1.26832,-0.413174 1.48451,0.171264 0.10447,0.282417 0.0409,4.00312 -0.14123,8.268229 -0.18214,4.265137 -0.30122,8.318077 -0.26461,9.006549 l 0.0666,1.25177 4.7625,-6.262475 c 7.48561,-9.843215 22.33753,-27.516243 33.08389,-39.368147 7.19144,-7.931256 13.10979,-14.098561 22.01212,-22.9380788 10.7573,-10.681361 12.19804,-12.207451 12.36425,-13.096875 0.10348,-0.553693 0.31112,-1.155541 0.46143,-1.337442 0.37978,-0.459581 1.19422,-0.413544 1.47222,0.08321 0.18574,0.331919 1.64362,-0.86286 7.35534,-6.0278892 15.84711,-14.330338 44.75297,-37.040255 60.96637,-47.898298 5.02047,-3.362182 10.48309,-7.050648 12.13911,-8.196587 3.00686,-2.08066 3.80516,-2.36022 4.33306,-1.51739 0.19137,0.30557 -1.65531,4.136378 -7.46141,15.478126 -23.82774,46.5456192 -44.75403,99.972295 -61.50239,157.021009 -3.90298,13.29442 -5.22039,18.27329 -8.47093,32.01459 -8.53197,36.06776 -14.07906,66.45553 -17.99106,98.55729 -1.09947,9.02229 -2.12889,17.74362 -2.28756,19.38073 -0.3502,3.61318 -0.34607,3.65914 2.28568,25.46615 3.89483,32.27305 9.40546,62.49908 17.87197,98.02812 3.29684,13.83493 4.79817,19.50257 8.83081,33.3375 16.33832,56.05243 37.4972,110.05658 61.3691,156.63333 5.58599,10.89885 7.52896,14.9216 7.34806,15.21354 -0.61748,0.99648 -1.47243,0.51446 -13.42173,-7.56719 z m 1.8482,-1.65108 c -0.57994,-0.55891 -3.63874,-3.48462 -6.79733,-6.50158 -10.11913,-9.66536 -26.10388,-26.42214 -36.78944,-38.56625 -10.17434,-11.56308 -26.30586,-31.32418 -32.31581,-39.58677 -1.72477,-2.37128 -3.17503,-4.27236 -3.22279,-4.2246 -0.13642,0.13642 5.40531,30.19271 5.6347,30.56048 0.11274,0.18074 3.65779,3.49872 7.87789,7.37325 14.49951,13.31225 44.76086,37.34663 59.65817,47.38217 3.71374,2.50174 6.81003,4.55557 6.88065,4.56406 0.0706,0.008 -0.3461,-0.44186 -0.92604,-1.00076 z m -1.63222,-6.06142 c -2.13209,-2.87404 -4.72969,-6.35662 -5.77247,-7.73906 -4.5453,-6.02591 -21.27451,-31.27709 -29.53625,-44.58229 -6.83676,-11.01032 -10.69634,-17.59503 -16.82655,-28.7073 -11.10861,-20.13659 -21.36799,-40.34594 -28.11716,-55.38623 -2.98318,-6.64789 -5.45606,-11.93723 -5.49529,-11.75409 -0.18336,0.85582 4.11445,37.16224 5.70973,48.23384 l 1.79337,12.44666 4.21497,5.80958 c 6.86777,9.46608 22.5501,28.78236 33.28602,40.9992 10.72205,12.20102 27.33849,29.59878 38.09261,39.88369 3.4629,3.31184 6.34826,6.02152 6.41186,6.02152 0.0636,0 -1.62877,-2.35148 -3.76084,-5.22552 z m 0.94605,-5.11797 c -11.18384,-21.81243 -27.14258,-58.93583 -37.35417,-86.89353 -12.47844,-34.16395 -22.74954,-67.56908 -29.69249,-96.57027 -8.15761,-34.07487 -14.12841,-66.40528 -17.73193,-96.01433 -0.94064,-7.72877 -1.71053,-14.28054 -1.7109,-14.55946 0,-0.2789 -0.0488,-0.45749 -0.10774,-0.39688 -0.35499,0.36547 -1.85764,20.77432 -2.53084,34.3738 -1.60256,32.37296 -1.27876,67.25467 0.90537,97.53777 l 0.91877,12.73881 6.50994,14.51327 c 12.46756,27.79517 30.66399,62.00754 46.55873,87.53827 10.08443,16.198 24.15699,37.16324 32.52457,48.45505 3.35769,4.53109 6.1359,8.21092 6.17376,8.17734 0.0378,-0.0336 -1.97054,-4.03849 -4.46307,-8.89984 z m -77.78226,-62.41814 c -1.29964,-7.0571 -2.58485,-14.27028 -2.85605,-16.02933 l -0.4931,-3.19823 -4.22646,-5.80504 c -6.98989,-9.6007 -21.64829,-31.87287 -30.01811,-45.60993 -9.91261,-16.26918 -20.37308,-35.3935 -26.91787,-49.2125 -2.51557,-5.31151 -4.68103,-9.7704 -4.81212,-9.90865 -0.14245,-0.15023 -0.23969,0.64818 -0.24169,1.98438 -0.002,1.22965 -0.12011,5.45099 -0.26282,9.38077 -0.25824,7.111 0.10695,43.43628 0.48942,48.68204 l 0.17361,2.38125 5.96312,7.80521 c 8.43037,11.0346 22.6545,28.00733 33.59308,40.08437 7.03326,7.76528 12.12812,13.05301 20.58863,21.36809 6.18344,6.07711 11.27426,11.01768 11.31294,10.97899 0.0387,-0.0387 -0.99298,-5.84432 -2.29258,-12.90142 z m -5.64989,-35.6107 c -1.51789,-10.59674 -5.01877,-40.50037 -5.68103,-48.52558 l -0.25106,-3.04271 -5.84639,-14.55209 c -8.15985,-20.31052 -15.62575,-41.59736 -21.83512,-62.25653 -5.83355,-19.40878 -11.86767,-42.89145 -15.66239,-60.95265 -1.42699,-6.79182 -2.62021,-12.3231 -2.6516,-12.29172 -0.0314,0.0314 -1.12541,6.48132 -2.43116,14.33317 -3.36148,20.21345 -5.95428,41.31249 -7.68815,62.56253 -0.71835,8.80401 -1.3882,18.16475 -1.48855,20.80167 l -0.18246,4.79438 5.64262,11.87437 c 11.39226,23.97395 26.91776,50.95348 44.50894,77.3457 7.21479,10.82437 15.01352,22.03701 15.20396,21.8595 0.036,-0.0335 -0.70093,-5.41104 -1.63761,-11.95004 z m -66.03321,-44.96379 c -0.33896,-13.89594 -0.32347,-32.83117 0.0361,-44.18203 l 0.30198,-9.53169 -0.66641,-1.31623 c -1.97226,-3.89535 -13.55187,-32.07546 -18.26238,-44.4433 -6.08416,-15.97443 -13.72295,-38.89227 -17.17466,-51.52726 -1.06338,-3.8925 -1.99852,-7.07742 -2.07807,-7.0776 -0.28367,0 -2.14049,7.48326 -5.28433,21.29861 -3.60503,15.84195 -8.07295,39.7514 -9.69096,51.85976 l -0.95478,7.14518 2.58039,5.15795 c 5.30783,10.60984 16.10868,29.62118 24.04978,42.33171 8.17979,13.09262 26.89927,40.74287 27.33413,40.37484 0.0298,-0.0251 -0.0561,-4.56568 -0.19083,-10.08994 z m 58.96595,-23.39877 c -1.12202,-15.694 -1.82433,-41.49529 -1.64581,-60.46406 0.19539,-20.76313 1.39401,-45.23513 3.17365,-64.79704 l 1.23962,-13.62583 -1.236,-13.44065 c -1.78456,-19.40581 -2.98608,-43.93814 -3.17873,-64.90211 -0.17571,-19.11926 0.52499,-44.89886 1.64687,-60.59091 0.3949,-5.52309 0.64249,-9.95513 0.55029,-9.84898 -0.0922,0.10615 -2.28111,5.4913 -4.86418,11.96697 -14.3608,36.00223 -27.99281,81.51019 -36.39856,121.5099 l -3.21095,15.27969 3.21186,15.27969 c 8.66759,41.23409 21.66326,84.64219 36.26459,121.13085 2.50002,6.24758 4.64865,11.62714 4.77472,11.95456 0.12607,0.32742 0.26562,0.59531 0.31009,0.59531 0.0445,0 -0.24238,-4.52133 -0.63746,-10.04739 z m -56.87242,-57.95052 c 1.82651,-21.77116 4.36312,-41.90646 8.10612,-64.34535 l 2.76703,-16.58805 -2.77037,-16.48486 c -3.8511,-22.9157 -6.44869,-43.79717 -8.32068,-66.88799 -0.73734,-9.09505 -1.37071,-17.48896 -1.4075,-18.65313 l -0.0669,-2.11666 -5.85887,13.89062 c -11.16984,26.48228 -22.78083,59.13872 -28.80842,81.02502 l -2.53115,9.19065 2.65376,9.59477 c 6.49956,23.49939 16.57912,51.84449 28.53137,80.23415 l 6.01331,14.28314 0.18576,-3.6998 c 0.10217,-2.03489 0.78011,-10.78402 1.50652,-19.44251 z m -56.73765,-5.15938 c 1.462,-10.97838 6.03041,-35.15098 9.65102,-51.06601 1.88718,-8.29545 4.03482,-17.25893 4.77252,-19.91881 l 1.34127,-4.83613 -1.33694,-4.81973 c -0.73532,-2.65086 -2.8794,-11.59079 -4.76463,-19.86653 -3.58784,-15.74986 -8.17306,-39.96688 -9.64837,-50.95822 -0.38025,-2.83298 -0.72303,-5.18253 -0.76173,-5.22124 -0.0387,-0.0387 -1.63131,3.11264 -3.53914,7.00294 -5.89541,12.02153 -13.52487,29.7738 -19.13001,44.51186 -4.86923,12.80303 -10.30633,28.36632 -10.30633,29.50104 0,1.12384 5.40471,16.64528 10.18041,29.23646 5.53684,14.59788 13.41612,32.9261 19.24841,44.77419 1.91442,3.88909 3.50508,7.04424 3.5348,7.01146 0.0297,-0.0328 0.37114,-2.44086 0.75872,-5.35128 z m 18.91374,-87.2482 c 3.0732,-11.25384 10.93136,-34.76154 17.10883,-51.18108 4.66701,-12.40478 16.12349,-40.37497 18.28279,-44.63613 l 0.67304,-1.32819 -0.29864,-9.27092 c -0.35285,-10.9538 -0.36954,-30.1879 -0.0382,-44.058895 0.13028,-5.454438 0.20219,-9.951852 0.1598,-9.994238 -0.44906,-0.449077 -18.62253,26.294023 -27.28562,40.152033 -7.57784,12.12197 -18.9694,32.1709 -24.12149,42.45335 l -2.51271,5.0148 0.95202,7.02374 c 1.66095,12.25402 6.12423,36.0947 9.68607,51.73832 3.12577,13.72838 5.00507,21.30081 5.28543,21.2971 0.0772,0 1.02612,-3.24548 2.10872,-7.20989 z m 52.6963,-7.47263 c 8.10638,-38.52024 22.1881,-84.68696 37.28473,-122.2375 l 5.85047,-14.552086 0.24871,-3.042708 c 0.59917,-7.330678 4.1216,-37.350514 5.67534,-48.368531 0.93517,-6.631305 1.67327,-12.081695 1.64025,-12.111964 -0.18962,-0.173937 -8.11699,11.229102 -15.25709,21.94642 -16.31937,24.495363 -32.43066,52.552839 -44.29602,77.140599 l -5.79854,12.01589 0.18153,4.91744 c 0.0998,2.7046 0.77582,12.18025 1.50218,21.05702 1.74579,21.33508 4.50814,43.72124 7.77863,63.03812 1.23815,7.31306 2.26499,13.38524 2.28187,13.49375 0.046,0.29559 0.0879,0.10393 2.90794,-13.29645 z m 47.71561,-6.61458 c 3.62641,-29.70162 9.47058,-61.32314 17.8561,-96.61499 3.33245,-14.02519 4.65815,-19.02778 8.47286,-31.97252 9.5859,-32.52877 21.72133,-67.287452 33.20877,-95.1177028 5.64037,-13.66467 19.23296,-44.2203942 21.83318,-49.0802072 2.54617,-4.758799 8.21738,-16.096477 7.87464,-15.742708 -1.91199,1.973585 -13.58122,18.201973 -21.05279,29.278047 -24.28515,36.0011422 -46.25766,75.3155 -64.19583,114.862691 l -6.51473,14.362588 -0.92122,12.757202 c -2.18454,30.25236 -2.51013,65.3723 -0.90692,97.82072 0.6109,12.36395 1.65301,27.08042 2.40755,33.99896 0.0667,0.61185 0.3092,-1.20835 1.93839,-14.55208 z m -57.34562,-97.63128 c 11.23734,-23.21727 27.4778,-51.304324 43.90738,-75.93563 4.95044,-7.421695 10.82178,-15.989538 13.04745,-19.039654 l 4.04667,-5.54564 0.46969,-3.05308 c 0.35404,-2.301293 3.69359,-20.6555178 5.17705,-28.45305378 0.25747,-1.35334302 -21.0145,20.08243078 -32.42636,32.67604178 -10.68375,11.790124 -24.92299,28.7832 -33.36672,39.819791 l -5.66786,7.408333 -0.17627,2.38125 c -0.38393,5.186838 -0.75139,41.541062 -0.49206,48.682042 0.14271,3.92978 0.26098,8.14715 0.26282,9.37196 0.002,1.22479 0.053,2.17729 0.1136,2.11664 0.0606,-0.0606 2.35772,-4.75369 5.10461,-10.429 z m 60.79224,-50.403101 c 11.93255,-26.34689 28.78403,-57.875327 45.30659,-84.7668628 10.39604,-16.9201932 24.56207,-38.0463522 33.02072,-49.2445932 l 5.79575,-7.672916 -1.97393,1.711216 c -1.08566,0.941168 -8.58192,8.32398 -16.65832,16.406244 -13.75873,13.768723 -15.33568,15.445409 -25.01683,26.599199 -12.33075,14.2064712 -28.29827,33.755819 -34.09334,41.741156 l -4.18004,5.7599 -1.959,13.686974 c -1.07744,7.527846 -2.79152,21.102796 -3.80905,30.166575 -1.83269,16.324685 -1.94646,17.446704 -1.74763,17.232735 0.0564,-0.06064 2.44814,-5.28947 5.31508,-11.619627 z m 6.1019,-58.25601 c 4.74872,-6.567937 21.68287,-27.1780518 33.16373,-40.362711 8.96569,-10.296252 11.89902,-13.440939 22.43685,-24.053365 6.66747,-6.714702 14.2063,-14.194205 16.75291,-16.62112 l 4.63021,-4.412572 -6.74688,4.524906 c -14.51319,9.733521 -43.82283,32.903999 -59.53124,47.0619 -4.43839,4.0003152 -8.14668,7.4028562 -8.24064,7.5612362 -0.094,0.158353 -1.38176,6.836383 -2.86178,14.8400288 -1.48,8.003646 -2.75551,14.819974 -2.83441,15.147396 -0.0789,0.327422 -0.0806,0.595313 -0.004,0.595313 0.0769,0 1.5326,-1.926458 3.23499,-4.281012 z M 192.62141,232.96732 c -0.64182,-0.12599 -1.81229,-0.61896 -2.60101,-1.09551 -0.9339,-0.56425 -32.96319,-31.21966 -91.834067,-87.89489 C 36.672513,84.757287 5.2922431,54.730916 -0.0188969,50.008659 -16.799647,35.088567 -32.295557,23.422268 -48.040777,13.85475 c -23.53535,-14.30117878 -48.35289,-25.789927 -72.372083,-33.503155 -5.62936,-1.807737 -61.65133,-18.116645 -129.63729,-37.739516 -65.84817,-19.005834 -120.55366,-34.877424 -121.56775,-35.270174 -2.40337,-0.93084 -3.1469,-1.46337 -4.56314,-3.26826 -1.40835,-1.79479 -2.18062,-4.382805 -2.1875,-7.330605 -0.004,-1.72222 0.10356,-2.15137 0.93655,-3.73657 1.85618,-3.53233 2.28079,-3.80377 19.7899,-12.65161 22.97774,-11.61129 44.98917,-21.82266 64.99403,-30.15153 57.67747,-24.01356 106.23023,-39.18183 168.31264,-52.58219 34.290273,-7.40149 66.282813,-12.4425 104.878293,-16.52551 15.5708101,-1.64723 19.4415901,-1.96116 35.58646,-2.88611 20.60546,-1.18051 24.12892,-1.17087 32.61926,0.0892 4.13004,0.61294 5.31061,0.90896 9.525,2.38837 9.95731,3.4954 17.30717,7.79182 25.60455,14.96731 2.94661,2.54821 4.26485,3.92855 6.50637,6.81293 5.99213,7.71063 7.67908,10.62117 16.511687,28.48808 15.96925,32.30317 28.11688,60.64347 41.73472,97.366665 15.5598,41.960152 29.01844,89.524119 38.78066,137.05416 9.40004,45.766645 14.80363,88.491485 17.77244,140.522725 1.11101,19.47151 1.11553,19.33821 -0.76139,22.45505 -0.91038,1.51178 -1.4065,2.02462 -2.73656,2.82885 -3.06618,1.85401 -5.88413,2.40874 -9.06466,1.78448 z m 4.49461,-8.68846 c 0.98947,-0.98947 0.9974,-0.007 -0.16237,-20.12868 C 193.35971,141.7958 185.45481,88.358584 171.3368,30.980382 159.5871,-16.772583 147.55599,-53.905369 128.40429,-101.52644 c -8.08479,-20.10294 -18.31261,-42.83503 -28.949837,-64.34317 -8.06751,-16.31222 -9.79021,-19.29724 -15.11681,-26.19375 -2.23866,-2.89845 -3.55208,-4.29559 -6.03824,-6.42315 -7.25551,-6.20895 -14.01127,-10.13408 -22.65592,-13.16322 -3.45546,-1.21081 -4.73282,-1.51457 -8.75358,-2.08163 -8.07445,-1.13877 -11.38071,-1.12991 -31.56297,0.0845 -15.4960099,0.93247 -20.1352099,1.31821 -35.05729,2.91493 -48.98771,5.24189 -89.559393,12.4039 -137.326053,24.24182 -55.62534,13.78552 -112.15775,33.84319 -164.82811,58.48093 -17.04054,7.9711 -46.24999,22.5452 -47.55885,23.72956 -1.2985,1.17499 -0.91522,3.35727 0.70882,4.03584 0.47556,0.1987 54.9073,15.972255 120.95942,35.052357 67.45727,19.485991 124.44352,36.087354 130.01665,37.876734 24.452183,7.850941 50.307453,19.8358602 74.215623,34.4018602 15.85643,9.6604658 32.033,21.8414068 48.8156201,36.7580848 4.9655699,4.413489 37.7183399,35.746108 95.9114569,91.752794 48.60396,46.77783 89.4085,86.04139 90.67676,87.25239 2.12436,2.02842 2.39156,2.20178 3.39378,2.20178 0.8496,0 1.25727,-0.16939 1.86126,-0.7734 z m -2.28642,-0.48742 c -0.15497,-0.10692 -4.36843,-6.56423 -9.36329,-14.3496 C 156.09055,163.65461 122.86386,121.97525 80.639353,77.947601 52.414113,48.517044 15.810173,16.129293 -19.730357,-10.861117 c -15.7231,-11.940537 -16.76167,-12.679428 -19.84375,-14.117661 -8.40449,-3.921919 -36.01199,-15.314678 -50.00625,-20.636044 -38.976913,-14.821091 -82.385273,-27.495743 -128.322913,-37.468543 -13.87393,-3.01195 -18.89358,-3.96986 -32.54375,-6.2104 -23.98491,-3.93688 -45.79075,-6.77242 -66.93959,-8.70453 -14.89601,-1.36087 -44.78178,-3.445275 -49.39757,-3.445275 -1.24259,0 -1.57453,-0.0997 -1.90558,-0.57232 -0.24278,-0.34661 -0.31612,-0.72374 -0.18603,-0.95625 0.11819,-0.21116 6.15564,-3.27207 13.4166,-6.80203 23.42676,-11.38906 51.80959,-22.7694 75.908,-30.43596 4.94771,-1.57405 9.03385,-2.88984 9.08031,-2.92399 0.0465,-0.0342 -0.0616,-0.29603 -0.24018,-0.58197 -0.43953,-0.70377 -0.13021,-1.38373 0.62944,-1.38373 0.34245,0 1.17261,0.1874 1.84481,0.41644 1.20163,0.40944 1.27248,0.40083 4.21431,-0.51222 6.95909,-2.15988 31.78318,-8.58869 44.53173,-11.5326 11.98702,-2.76806 15.59777,-3.48187 28.04583,-5.5444 7.85812,-1.30203 17.56053,-2.80156 21.56089,-3.33229 4.00035,-0.53073 7.30674,-0.99831 7.34748,-1.03907 0.0408,-0.0408 -3.41087,-1.89183 -7.67027,-4.1135 -4.25939,-2.22167 -7.89318,-4.15871 -8.07508,-4.30453 -0.84656,-0.67862 0.0885,-1.91713 1.14432,-1.5157 0.36486,0.13872 4.64056,2.33978 9.50156,4.89124 l 8.83819,4.63902 5.10771,-0.66785 c 7.39391,-0.96678 29.62222,-2.45521 45.98582,-3.07924 12.775783,-0.48722 15.508873,-0.51168 28.045843,-0.25103 7.63984,0.15884 16.24761,0.42048 19.12836,0.58143 2.88076,0.16094 5.28463,0.24574 5.34194,0.18844 0.23233,-0.23232 -10.68848,-8.282 -22.56684,-16.63393 -7.91448,-5.56484 -12.65031,-9.0577 -12.71146,-9.37522 -0.11858,-0.61567 0.64138,-1.22797 1.24257,-1.00115 0.94938,0.35821 25.66887,17.9093 31.39355,22.28977 3.34698,2.56107 6.23843,4.74913 6.42541,4.86237 0.187,0.11323 4.05653,0.43094 8.59895,0.70602 13.95693,0.84522 33.8044701,3.08201 50.5923101,5.7017 8.0036399,1.24894 17.6453499,2.90713 21.4260099,3.68486 3.78065,0.77774 6.89721,1.39078 6.92568,1.36232 0.1506,-0.15059 -7.03821,-7.83421 -15.67199,-16.75072 -7.14314,-7.37707 -12.5431499,-12.63435 -20.0880399,-19.55713 -5.67531,-5.20734 -10.4130701,-9.62507 -10.5283801,-9.81717 -0.28696,-0.47813 0.2565701,-1.41461 0.8210601,-1.41461 0.25328,0 5.28254,4.43508 11.17616,9.85573 8.1756199,7.51954 13.1676199,12.39575 21.0598999,20.57136 5.68934,5.89359 11.77714,12.32947 13.52847,14.30195 l 3.1842,3.58634 5.43018,1.11461 c 10.17548,2.08865 32.19797,7.93126 46.47806,12.33071 7.34843,2.26393 13.636457,4.23727 13.973437,4.38521 0.79369,0.34845 0.73157,1.68103 -0.0835,1.79131 -0.29104,0.0394 -6.687737,-1.83187 -14.214887,-4.15833 -9.59655,-2.96607 -17.73923,-5.26978 -27.25209,-7.71011 -12.26756,-3.14701 -21.90072,-5.38825 -21.90072,-5.0954 0,0.0612 2.04099,2.39877 4.53551,5.19451 11.47927,12.86529 33.37015,41.369 44.01553,57.311805 l 5.02708,7.52869 7.276037,3.07754 c 11.20188,4.73804 35.16503,15.913663 35.34614,16.484263 0.17267,0.543989 -0.30655,1.246474 -0.85029,1.246474 -0.2004,0 -6.76402,-2.963135 -14.58585,-6.584747 -11.41473,-5.28519 -19.60631,-8.92868 -24.902707,-11.07635 -0.19939,-0.0808 0.70403,1.44881 2.00763,3.39924 4.924927,7.36872 17.180267,28.388675 23.895527,40.984773 7.10028,13.318336 18.01402,35.4085252 21.02352,42.5531752 l 1.80309,4.280614 8.54077,5.5806448 c 4.69744,3.069352 8.73025,5.790009 8.96181,6.045888 0.46823,0.517392 0.32112,1.210812 -0.30813,1.452271 -0.51973,0.199443 -1.33813,-0.284956 -9.15147,-5.41655 -3.51393,-2.307854 -6.41897,-4.166156 -6.45559,-4.129511 -0.0367,0.03662 1.24838,3.155474 2.85562,6.930761 4.46551,10.4893 12.21989,32.165474 17.17384,48.006872 3.95407,12.644014 11.01225,37.971387 12.42409,44.582287 0.5288,2.47619 0.63379,2.70529 1.63709,3.57328 1.22975,1.06389 1.36874,2.179 0.29064,2.33212 -0.32742,0.0465 -0.59531,0.12978 -0.59531,0.1851 0,0.0553 0.94813,4.4821 2.10695,9.83732 5.21166,24.08417 9.17364,52.56107 11.13992,80.06834 0.83489,11.67982 1.00459,15.11805 0.76065,15.41198 -0.34439,0.41497 -0.75751,0.47588 -1.19235,0.17584 z m -5.51603,-12.46013 c -0.0772,-0.12496 -1.91445,-4.38145 -4.08273,-9.45885 -2.16827,-5.07741 -7.09925,-15.83963 -10.95775,-23.91603 C 157.00871,141.81942 134.48592,104.01125 107.52287,65.905381 L 97.974903,52.411632 87.011873,45.030286 C 63.536843,29.224766 28.318983,8.5168342 2.3623531,-4.7431828 -9.8512369,-10.982526 -26.976927,-19.307971 -27.149407,-19.089957 c -0.0279,0.03525 4.89958,3.814558 10.94991,8.398465 24.0907701,18.2518042 48.45704,39.07647 74.65351,63.802682 29.73634,28.067423 62.882727,64.94933 89.751537,99.86635 11.80369,15.33932 26.77787,36.41537 35.37037,49.78357 3.11004,4.83857 5.70489,8.7974 5.76633,8.7974 0.0615,0 0.0486,-0.10224 -0.0287,-0.2272 z m -0.26152,-10.24967 c -1.22668,-5.07902 -3.97031,-15.52635 -6.09692,-23.21631 -3.22797,-11.67241 -4.68961,-16.39207 -8.84942,-28.575 -5.4429,-15.94067 -14.48249,-39.60342 -19.13659,-50.093354 l -2.72032,-6.131322 -11.1125,-8.694367 c -6.11187,-4.78192 -16.8275,-12.906375 -23.8125,-18.05432 -6.985,-5.147971 -13.11576,-9.668272 -13.62395,-10.045144 l -0.92392,-0.685192 0.50752,0.79375 c 0.27914,0.436563 3.80931,5.447242 7.84482,11.134858 17.10544,24.108224 36.28144,54.882331 50.10353,80.407331 9.0124,16.64303 19.5756,38.38347 26.06683,53.64903 2.08868,4.91194 3.83948,8.88891 3.89067,8.83772 0.0512,-0.0512 -0.91056,-4.24865 -2.13725,-9.32768 z m 3.79667,1.20095 c -0.89559,-12.72371 -3.60879,-34.39221 -6.32381,-50.50412 -2.00877,-11.92064 -6.39111,-33.86574 -7.09525,-35.53018 -0.19061,-0.45059 -23.37602,-20.369269 -23.53032,-20.21499 -0.0437,0.04371 0.82788,2.152967 1.9368,4.68723 4.1066,9.38485 13.47393,34.09312 18.34788,48.39631 4.15459,12.19221 5.41882,16.32003 9.1164,29.76563 2.36112,8.58573 5.11183,19.08897 6.11272,23.34056 1.00092,4.25156 1.85256,7.69742 1.89254,7.65741 0.04,-0.04 -0.16563,-3.45903 -0.45696,-7.59785 z M 178.17387,110.18385 C 174.91169,97.417176 169.79684,79.272263 166.3703,68.310761 161.27639,52.015259 153.70944,30.961306 148.62671,18.94184 l -3.52441,-8.334374 -4.49654,-2.9836268 c -5.94029,-3.941604 -31.52365,-18.8700012 -40.21529,-23.4664142 -3.783537,-2.000856 -7.527017,-3.995989 -8.318867,-4.433631 l -1.4397,-0.795716 0.49604,0.758444 c 0.27284,0.417145 3.12526,4.568444 6.33875,9.225111 7.668077,11.11178522 20.144347,31.591249 29.577767,48.551041 8.12356,14.604867 17.87703,33.987368 23.48852,46.677261 l 3.38339,7.651221 2.87038,2.310024 c 1.57872,1.270503 7.09711,5.93 12.26309,10.35439 5.16599,4.42442 9.42888,7.90138 9.47307,7.72663 0.0442,-0.17479 -0.11287,-1.07403 -0.34904,-1.99835 z M 150.02054,87.931943 c -3.09481,-7.106946 -5.4636,-12.127441 -11.0793,-23.48177 C 126.28553,38.861605 108.95696,9.1374142 94.253593,-12.20393 l -7.51324,-10.905146 -4.41973,-2.312151 c -2.43086,-1.271683 -10.73004,-5.333635 -18.44265,-9.02656 -18.96168,-9.079166 -40.57644,-18.331238 -58.3204099,-24.963683 -7.33769,-2.742724 -13.374,-4.954003 -13.41406,-4.913955 -0.0401,0.04005 4.34833,3.998052 9.75191,8.795562 12.3512799,10.965902 29.1675899,27.496105 44.6723799,43.912329 13.71979,14.5262862 27.95257,31.105924 41.91617,48.827822 5.21176,6.614477 9.84422,12.42597 10.29435,12.914418 0.45011,0.48842 1.847747,1.58443 3.105787,2.435568 4.87889,3.300783 29.9862,22.007354 39.01522,29.068898 5.22316,4.084981 9.52238,7.427251 9.55378,7.427251 0.0314,0 -0.16325,-0.506016 -0.43256,-1.12448 z M 92.793813,45.863194 C 92.291363,45.244731 88.538993,40.511996 84.455203,35.346007 72.760353,20.552095 58.215283,3.6706732 45.815053,-9.5008668 30.053323,-26.242981 12.276603,-43.664933 -1.6998769,-56.067533 c -6.23152,-5.529792 -11.5874801,-10.187837 -11.9021201,-10.351212 -0.31467,-0.163375 -7.18008,-2.44743 -15.25649,-5.07568 -30.61753,-9.96365 -61.13473,-17.74615 -94.114163,-24.00099 -10.72478,-2.03405 -20.29503,-3.66458 -28.76273,-4.900445 -6.97952,-1.01867 -12.78379,-1.81996 -12.89835,-1.78065 -0.11457,0.0393 3.98587,2.09417 9.11211,4.566345 13.19104,6.3615 36.97158,19.29532 53.50584,29.100894 18.755683,11.122967 40.191673,24.835567 53.975003,34.527783 6.11188,4.297773 11.41016,8.003966 11.77396,8.235987 0.3638,0.232019 5.84068,2.832016 12.17083,5.77777 17.7638601,8.266451 39.13193,19.28704022 56.09167,28.9292502 17.7247,10.0771058 41.73492,24.7053628 53.04896,32.3200968 4.65666,3.134096 8.51077,5.700078 8.56469,5.702194 0.0539,0.0026 -0.31308,-0.502152 -0.81552,-1.120616 z M 142.09751,3.5720102 c -2.79218,-6.464988 -13.75484,-28.4923412 -20.13495,-40.4572522 -6.98923,-13.10726 -19.2682,-34.071163 -24.827147,-42.387503 l -2.89629,-4.33291 -6.71391,-2.82538 c -9.12455,-3.83985 -32.14626,-11.91112 -49.54669,-17.370775 -12.28871,-3.85578 -20.76487,-6.37301 -21.45956,-6.37301 -0.10398,0 2.40128,2.64914 5.56728,5.88698 11.34581,11.603255 25.74639,27.756465 36.26594,40.679682 7.80137,9.583954 21.16174,26.984404 28.98386,37.748349 0.92471,1.272501 1.42075,1.57221 10.9802,6.634131 10.263397,5.434682 35.530897,19.99781422 41.563527,23.9555042 1.85526,1.21711 3.40656,2.133732 3.44734,2.036921 0.0408,-0.09681 -0.51253,-1.534451 -1.2296,-3.194737 z M 83.924213,-27.161805 c -0.14256,-0.181901 -4.18566,-5.569479 -8.98467,-11.972395 -13.16818,-17.569146 -25.53872,-32.581165 -39.24501,-47.624995 -6.23139,-6.83948 -14.10743,-15.187905 -17.50235,-18.552045 l -6.17254,-6.11663 -9.2604199,-2.42197 c -20.1123001,-5.26016 -57.1841801,-12.02864 -84.1328901,-15.36074 -8.14663,-1.00729 -14.83376,-1.80953 -14.8603,-1.78274 -0.0265,0.0268 0.98343,0.69741 2.24436,1.49026 1.26092,0.79285 8.36477,5.60953 15.78633,10.70372 18.01686,12.36685 36.21133,26.068795 52.3875,39.452135 6.69396,5.53824 12.52802,10.32836 12.96459,10.644714 0.43656,0.316355 7.9375001,3.242318 16.6687501,6.502141 20.6357199,7.704373 39.4175899,15.696504 60.1926999,25.613423 8.22193,3.924707 16.02052,7.709625 17.33021,8.410929 2.54109,1.360681 2.99485,1.538801 2.58374,1.014193 z m -130.50978,-3.221688 c 0,-0.422032 -16.2162,-11.357721 -27.87824,-18.800204 -29.063743,-18.547881 -59.461013,-35.751188 -84.995763,-48.103288 l -12.46465,-6.029585 -15.3166,-1.45029 c -8.64317,-0.81839 -22.5792,-1.91287 -31.98537,-2.512 -15.77364,-1.00471 -17.62781,-1.07032 -34.52813,-1.22183 -24.24879,-0.21739 -40.82997,0.27969 -64.02916,1.9195 -10.96939,0.77536 -20.42581,1.60244 -27.24404,2.38284 -5.74363,0.6574 -10.49621,1.24851 -10.56127,1.31357 -0.0651,0.0651 0.2885,0.11808 0.78568,0.11782 3.43641,-0.002 21.68758,1.3331 36.49046,2.66893 21.56905,1.946415 43.03596,4.715645 67.46875,8.703455 13.68626,2.23381 18.81545,3.20533 32.27917,6.11396 57.47803,12.41728 110.65475,28.972022 158.750003,49.421316 14.24177,6.05537 13.22916,5.636228 13.22916,5.475806 z m 28.69406,-39.804552 c -0.13824,-0.12645 -5.07338,-4.20891 -10.96698,-9.07215 -14.39441,-11.87789 -32.86177,-25.753605 -49.60937,-37.274705 -11.40039,-7.84263 -19.92524,-13.52361 -21.795023,-14.52429 -0.88882,-0.47568 -27.20454,-2.07677 -42.10185,-2.56154 -12.54557,-0.40824 -15.95742,-0.42373 -30.00381,-0.13622 -21.75954,0.4454 -49.73558,2.05478 -57.04078,3.28139 -0.21645,0.0363 4.60558,2.0195 10.71563,4.40702 7.64175,2.98604 16.14667,6.60766 27.24875,11.60326 8.87677,3.99427 16.97302,7.68237 17.99167,8.19578 1.8212,0.9179 2.13225,0.97461 18.65312,3.40054 43.06715,6.323985 86.999503,16.500755 124.883333,28.928755 13.21559,4.335451 12.37697,4.07378 12.02531,3.75216 z m 106.34123,-22.15574 c -9.2056,-14.003935 -32.18124,-43.789295 -44.23137,-57.341005 -2.99824,-3.37186 -5.55054,-6.19993 -5.6718,-6.28461 -0.68762,-0.48023 -19.45558,-3.9772 -31.1571199,-5.8054 -15.48154,-2.41878 -35.7899501,-4.7378 -48.2203101,-5.50628 -4.0382,-0.24966 -7.34219,-0.42823 -7.34219,-0.39684 0,0.0314 1.96064,1.55475 4.35697,3.38524 9.32979,7.12677 27.56205,22.79228 38.8552801,33.38522 5.99229,5.62068 12.56192,11.92977 14.59921,14.02018 l 3.7041699,3.80076 5.15937,1.34495 c 14.21884,3.70659 57.1183,18.051005 68.2625,22.825125 2.54661,1.09096 4.77401,1.99288 4.9498,2.00426 0.17576,0.0114 -1.29326,-2.43284 -3.26451,-5.4316 z M -345.16233,-106.21561 c 14.73957,-1.70073 38.66796,-3.33512 58.20281,-3.97546 13.5246,-0.44333 19.28373,-0.50903 32.80833,-0.37428 14.87837,0.14824 17.99148,0.26061 33.46979,1.20808 9.38609,0.57454 22.77258,1.58081 29.74777,2.23616 6.97521,0.65533 12.79485,1.15396 12.93259,1.10805 0.13772,-0.0459 -6.53478,-3.13984 -14.82778,-6.87539 -10.63728,-4.79152 -18.69326,-8.20658 -27.35236,-11.59511 -6.75079,-2.64175 -12.70368,-4.95657 -13.22861,-5.14404 -2.49555,-0.89123 -35.70549,4.08719 -60.16432,9.0191 -11.55951,2.33087 -18.51033,3.9084 -29.76562,6.75552 -12.34379,3.12245 -31.07571,8.24443 -31.46338,8.60321 -0.17809,0.16483 -0.0284,0.14984 9.64078,-0.96584 z m -1.85761,-3.43983 c 15.91035,-4.5402 37.27691,-9.74442 53.18125,-12.95327 15.32152,-3.09125 39.89927,-7.16696 49.74167,-8.24862 2.76489,-0.30385 5.10966,-0.62639 5.21062,-0.71675 0.22048,-0.19737 -27.47102,-10.35096 -28.22937,-10.35079 -1.2236,2.6e-4 -23.45886,7.42867 -35.45417,11.8446 -12.55432,4.62172 -34.47756,13.63961 -42.46562,17.46775 -5.63624,2.70107 -11.53518,5.66397 -10.98021,5.51509 0.29104,-0.0781 4.33916,-1.22918 8.99583,-2.55801 z m 355.3254631,-5.83772 c -0.72212,-0.74227 -6.79751,-6.50956 -13.50084,-12.81619 -9.4923501,-8.93059 -14.7880901,-13.65151 -23.9447901,-21.34567 -10.996,-9.23968 -21.21548,-17.37003 -22.73593,-18.08813 -0.92155,-0.43523 -10.85715,-0.90667 -26.72411,-1.26805 -11.64619,-0.26524 -15.1107,-0.24449 -26.987503,0.16161 -13.86528,0.4741 -41.73744,2.2479 -46.93589,2.98704 -1.47042,0.20906 -2.79255,0.38265 -2.93807,0.38575 -0.14552,0.003 2.05714,1.23728 4.89479,2.74263 15.02998,7.97327 32.27327,17.80145 41.14271,23.45018 l 9.26042,5.89772 2.513543,0.22254 c 9.32844,0.82591 33.37007,4.11092 47.17798,6.44632 18.87689,3.19275 43.6186001,8.20488 52.8345201,10.70311 3.71078,1.00592 6.86146,1.83834 7.00151,1.84983 0.14004,0.0115 -0.33621,-0.58641 -1.05834,-1.32869 z M -225.84077,-132.92985 c 9.81265,-1.11921 36.47032,-2.52849 54.90104,-2.90239 13.00017,-0.26373 15.93945,-0.2394 29.85555,0.24713 8.48966,0.29682 19.91,0.84324 25.37855,1.21428 5.46854,0.37104 10.20468,0.63888 10.52475,0.59521 1.6896,-0.23054 -25.65688,-16.23181 -47.49001,-27.78788 l -6.46972,-3.42435 -9.27299,1.22531 c -5.10016,0.67393 -15.64285,2.28965 -23.42822,3.59049 -12.42253,2.07566 -15.88788,2.76838 -28.31041,5.65916 -15.58721,3.62722 -44.90501,11.36257 -43.62829,11.5111 0.20818,0.0242 25.50057,9.29307 27.75329,10.17069 0.94588,0.3685 2.07698,0.67357 2.51354,0.67794 0.43656,0.004 3.88937,-0.34515 7.67292,-0.77669 z"
       id="path896"
       inkscape:connector-curvature="0" />
  </g>
</svg>
